# xmcd
#
# Track frame offsets: 
#        183
#        14348
#        27870
#        41350
#        48603
#        58758
#        72613
#        84723
#        101110
#        107490
#        116715
#        125268
#
# Disc length: 1900 seconds
#
# Revision: 3
# Processed by: cddbd v1.5.2PL0 Copyright (c) Steve Scherf et al.
# Submitted via: ExactAudioCopyFreeDBPlugin 1.0
#
DISCID=a5076a0c
DTITLE=Nino Rota - The Godfather (Music From The Original Motion Pictu
DTITLE=re Soundtrack)
DYEAR=1972
DGENRE=Soundtrack
TTITLE0=Main Title (The Godfather Waltz)
TTITLE1=I Have But One Heart
TTITLE2=The Pickup
TTITLE3=Connie's Wedding
TTITLE4=The Halls Of Fear
TTITLE5=Sicilian Pastorale
TTITLE6=Love Theme From The Godfather
TTITLE7=The Godfather Waltz
TTITLE8=Apollonia
TTITLE9=The New Godfather
TTITLE10=The Baptism
TTITLE11=The Godfather Finale
EXTD=YEAR: 1972
EXTT0=
EXTT1=
EXTT2=
EXTT3=
EXTT4=
EXTT5=
EXTT6=
EXTT7=
EXTT8=
EXTT9=
EXTT10=
EXTT11=
PLAYORDER=
